<?xml version="1.0" standalone="no"?>
<!DOCTYPE svg PUBLIC "-//W3C//DTD SVG 20010904//EN"
 "http://www.w3.org/TR/2001/REC-SVG-20010904/DTD/svg10.dtd">
<svg version="1.0" xmlns="http://www.w3.org/2000/svg"
 width="16.000000pt" height="16.000000pt" viewBox="0 0 16.000000 16.000000"
 preserveAspectRatio="xMidYMid meet">

<g transform="translate(0.000000,16.000000) scale(0.100000,-0.100000)"
fill="#000000" stroke="none">
<path d="M0 80 l0 -80 80 0 80 0 0 41 c0 41 0 42 -33 36 -27 -4 -33 -2 -34 13
-1 13 4 16 19 12 17 -4 19 -2 13 18 -9 29 13 17 25 -14 7 -17 9 -15 9 17 l1
37 -80 0 -80 0 0 -80z m42 35 c-4 -35 -32 -51 -32 -18 0 13 26 53 35 53 0 0
-1 -16 -3 -35z m63 15 c3 -5 -1 -10 -9 -10 -9 0 -16 5 -16 10 0 6 4 10 9 10 6
0 13 -4 16 -10z"/>
</g>
</svg>
