<?xml version="1.0" standalone="no"?>
<!DOCTYPE svg PUBLIC "-//W3C//DTD SVG 20010904//EN"
 "http://www.w3.org/TR/2001/REC-SVG-20010904/DTD/svg10.dtd">
<svg version="1.0" xmlns="http://www.w3.org/2000/svg"
 width="940.000000pt" height="940.000000pt" viewBox="0 0 940.000000 940.000000"
 preserveAspectRatio="xMidYMid meet">

<g transform="translate(0.000000,940.000000) scale(0.100000,-0.100000)"
fill="#000000" stroke="none">
<path d="M0 7129 c0 -2094 1 -2273 16 -2284 12 -8 18 -33 22 -88 4 -73 4 -77
-17 -77 -18 0 -21 -6 -21 -44 0 -38 3 -44 18 -41 10 2 25 -1 33 -6 10 -6 5 -9
-18 -9 l-33 0 0 -2290 0 -2290 4700 0 4700 0 0 4700 0 4700 -2349 0 -2349 0
-30 -57 -30 -58 -54 -1 c-66 -1 -129 -10 -238 -35 -89 -21 -248 -68 -265 -79
-5 -4 -43 -17 -83 -30 -52 -16 -72 -27 -68 -36 3 -8 -1 -14 -10 -14 -8 0 -13
-4 -9 -9 9 -15 -34 -24 -51 -10 -9 8 -37 10 -84 7 -38 -3 -73 -1 -78 4 -13 13
-63 -8 -57 -24 6 -17 -1 -27 -60 -73 -91 -72 -162 -149 -190 -205 -15 -30 -37
-65 -49 -78 -11 -13 -20 -24 -18 -25 10 -6 -39 -127 -51 -127 -7 0 -21 -14
-32 -30 -11 -16 -25 -30 -32 -30 -7 0 -17 -8 -22 -19 -6 -10 -21 -21 -34 -25
-27 -6 -109 -81 -99 -90 3 -3 -4 -6 -15 -6 -24 0 -83 -51 -83 -72 0 -7 -11
-25 -24 -39 -13 -15 -37 -50 -53 -79 -15 -29 -36 -67 -45 -84 -9 -17 -17 -38
-18 -47 0 -9 -9 -24 -19 -33 -11 -10 -27 -34 -37 -54 -23 -51 -76 -121 -91
-122 -7 0 -23 -10 -34 -21 -12 -12 -32 -22 -45 -23 -15 0 -24 -7 -24 -18 0 -9
-10 -25 -23 -35 -13 -10 -27 -31 -31 -47 -7 -29 -28 -56 -44 -56 -5 0 -13 -25
-19 -56 -9 -49 -8 -56 8 -65 26 -14 34 -12 63 17 14 15 26 23 26 18 0 -17 -45
-139 -53 -142 -4 -2 -7 -16 -7 -30 -1 -15 -7 -45 -16 -67 -8 -22 -17 -66 -20
-97 -4 -32 -10 -55 -15 -53 -4 3 -5 -30 -2 -72 3 -60 2 -75 -7 -63 -9 13 -11
12 -6 -5 2 -11 8 -35 11 -53 4 -18 9 -31 13 -28 7 7 42 -96 36 -106 -3 -5 -1
-8 5 -8 7 0 7 -8 1 -24 -5 -13 -6 -26 -4 -29 3 -3 -2 -35 -11 -71 -9 -36 -14
-76 -10 -88 5 -17 4 -19 -4 -8 -14 20 -17 13 -24 -50 -4 -37 -3 -48 3 -32 5
12 11 22 12 22 8 0 -11 -213 -19 -219 -5 -3 -12 -14 -16 -24 -4 -10 -11 -15
-17 -12 -5 3 -10 -3 -10 -15 0 -11 -4 -28 -9 -38 -5 -9 -17 -39 -27 -67 -9
-27 -20 -52 -25 -55 -10 -7 -30 -121 -38 -225 -6 -79 -5 -92 11 -108 19 -19
21 -28 18 -96 -1 -29 2 -41 9 -37 7 5 11 -8 11 -38 0 -25 4 -47 9 -51 6 -3 13
-27 16 -53 4 -26 15 -63 25 -84 10 -20 16 -39 13 -42 -4 -3 1 -6 10 -6 9 0 16
-3 16 -7 -3 -18 2 -33 10 -33 5 0 7 10 3 22 -5 19 -3 20 9 8 8 -7 16 -22 17
-32 4 -42 6 -48 14 -48 4 0 8 -5 8 -11 0 -8 -5 -7 -16 2 -13 10 -17 10 -24 -1
-13 -20 -5 -27 30 -25 26 2 29 -1 24 -18 -5 -16 -3 -19 11 -13 15 5 16 4 5 -9
-12 -14 -7 -19 13 -16 5 1 6 -3 2 -8 -3 -6 -12 -8 -20 -5 -12 5 -13 1 -4 -23
6 -17 21 -34 37 -40 l27 -10 -28 -8 c-23 -6 -27 -12 -27 -46 0 -35 3 -39 26
-39 14 0 23 4 19 10 -3 6 -1 10 4 10 13 0 14 -5 2 -28 -17 -33 -31 -89 -31
-120 0 -18 -5 -32 -10 -32 -6 0 -15 -12 -21 -27 -7 -16 -16 -38 -22 -50 -8
-17 -6 -28 8 -49 10 -16 13 -29 7 -33 -5 -3 -13 -41 -17 -83 l-7 -78 -79 0
-79 0 0 40 c0 39 1 40 34 40 33 0 35 -2 39 -37 2 -21 4 -3 5 40 l2 77 -240 0
-240 0 -1 43 c0 23 0 77 1 120 l1 77 -80 0 -81 0 0 -120 0 -120 -680 0 -680 0
0 40 0 40 -160 0 -160 0 0 33 c0 18 5 38 11 44 6 6 9 28 7 49 -4 38 -4 38 -15
14 -12 -25 -12 -25 -12 8 -1 17 -5 32 -11 32 -5 0 -10 7 -10 15 0 18 17 20 23
3 2 -7 3 25 1 72 -1 47 0 77 2 68 11 -36 34 -20 34 22 0 33 -3 40 -19 40 -11
0 -21 -8 -23 -17 -2 -10 -4 8 -5 39 -1 32 3 60 8 63 5 4 9 22 9 41 0 19 4 34
10 34 5 0 10 32 9 73 0 135 5 186 18 191 7 3 13 14 13 24 0 10 3 22 6 25 7 6
13 63 13 121 0 15 5 33 10 40 5 6 12 30 16 54 4 25 11 39 17 36 7 -4 8 8 3 35
-5 28 -3 41 5 41 6 0 8 5 4 11 -3 6 0 15 7 20 8 5 13 22 12 41 -2 28 -1 30 7
13 8 -17 9 -15 7 12 -1 20 5 41 16 53 10 12 15 25 12 31 -9 13 5 50 16 44 5
-4 7 12 5 34 -4 40 7 64 17 39 3 -7 5 2 4 20 0 18 5 38 11 44 7 7 12 20 12 30
0 10 13 44 30 75 16 32 31 69 34 83 4 25 63 141 76 150 4 3 10 20 13 39 10 50
69 171 80 164 6 -3 7 -2 4 3 -3 6 8 34 24 64 16 30 32 63 35 73 4 9 10 17 14
17 4 0 10 11 14 23 3 13 19 40 34 60 16 20 35 51 43 69 7 18 24 44 37 58 13
14 38 52 57 85 19 33 43 70 55 82 11 12 20 25 20 29 0 3 11 15 24 25 13 10 27
31 30 45 6 24 76 103 76 86 0 -4 10 12 22 36 13 24 44 64 70 88 27 25 48 48
48 52 0 12 86 102 97 102 7 0 14 8 18 19 3 10 20 32 38 49 17 16 61 60 96 96
36 36 101 99 144 139 44 39 103 93 132 120 28 26 56 47 61 47 5 0 32 22 60 48
28 26 64 54 80 62 16 8 38 25 49 38 11 12 30 28 41 35 12 7 47 29 78 50 31 20
60 37 65 37 5 0 22 13 39 28 16 15 48 36 71 47 23 10 46 24 52 31 6 7 36 26
67 42 125 65 157 83 172 97 9 8 22 15 28 15 9 0 110 47 152 71 34 20 162 79
171 79 5 0 48 18 96 39 49 22 113 47 143 56 30 10 80 26 110 37 149 51 304 93
440 118 25 4 56 13 70 19 42 18 256 51 435 66 284 24 346 32 358 44 8 8 -566
11 -2261 11 l-2272 0 0 -2271z m5016 2203 c-3 -5 -25 -13 -48 -16 l-43 -7 30
-13 c29 -12 27 -13 -25 -9 -40 2 -49 1 -35 -6 18 -9 17 -10 -8 -10 -16 -1 -26
3 -22 9 3 6 0 10 -8 10 -8 0 -17 -7 -21 -15 -7 -18 -49 -21 -44 -2 5 15 78 54
110 59 58 8 119 8 114 0z m87 -19 c-13 -2 -33 -2 -45 0 -13 2 -3 4 22 4 25 0
35 -2 23 -4z m801 -89 c12 -5 13 -10 5 -25 -8 -16 -17 -19 -47 -13 -51 8 -102
26 -102 36 0 9 121 11 144 2z m184 -46 c26 -6 58 -20 72 -30 14 -10 50 -22 80
-27 56 -9 149 -42 185 -65 11 -7 38 -18 60 -25 57 -17 68 -22 186 -80 59 -28
113 -51 120 -51 8 0 25 -9 39 -20 14 -11 30 -20 37 -20 6 0 18 -6 25 -12 19
-18 56 -38 68 -38 5 0 19 -9 30 -20 11 -11 26 -20 34 -20 20 0 86 -40 86 -51
0 -5 9 -9 19 -9 10 0 21 -6 24 -14 4 -9 14 -13 29 -9 18 4 20 3 8 -6 -8 -6
-12 -11 -7 -12 4 -1 10 -2 15 -3 10 -1 66 -37 127 -80 28 -20 55 -36 60 -36 6
0 32 -20 60 -45 27 -25 53 -45 57 -45 4 0 31 -20 60 -45 58 -50 62 -53 99 -77
14 -9 39 -29 55 -45 16 -15 58 -53 94 -83 36 -30 67 -59 69 -64 2 -4 13 -16
24 -25 11 -9 44 -40 73 -68 28 -29 55 -53 58 -53 10 0 70 -70 78 -91 4 -11 12
-19 18 -19 12 0 90 -75 90 -86 0 -3 18 -24 40 -45 22 -22 40 -43 40 -47 0 -5
9 -17 20 -27 11 -10 20 -22 20 -27 0 -5 14 -23 31 -40 16 -17 28 -37 25 -44
-3 -9 0 -11 11 -7 10 4 14 2 10 -4 -4 -6 2 -13 13 -16 11 -3 25 -17 32 -33 7
-15 25 -41 40 -59 34 -38 136 -199 179 -282 18 -35 36 -63 40 -63 11 0 49 -69
49 -91 0 -10 4 -19 10 -19 5 0 12 -11 16 -25 3 -14 10 -25 15 -25 5 0 9 -7 9
-15 0 -8 13 -29 29 -47 16 -19 37 -59 46 -91 9 -31 21 -55 26 -52 5 4 9 -3 9
-14 0 -10 16 -43 35 -73 27 -39 35 -60 31 -80 -3 -16 -1 -28 3 -28 5 0 12 -13
16 -30 4 -16 13 -34 21 -38 8 -5 16 -18 17 -30 1 -12 5 -22 10 -22 5 0 7 -6 4
-14 -3 -8 2 -17 11 -21 14 -5 14 -7 2 -15 -13 -8 -12 -10 2 -10 14 0 15 -5 8
-31 -7 -25 -5 -34 13 -52 12 -12 22 -31 23 -42 0 -11 2 -31 3 -45 2 -21 4 -22
9 -7 6 13 11 7 25 -30 13 -38 14 -44 2 -29 -8 11 -15 15 -15 9 0 -6 7 -16 15
-23 8 -7 15 -20 15 -29 0 -9 7 -29 16 -46 8 -16 19 -63 25 -104 5 -41 14 -78
20 -82 8 -5 8 -12 0 -28 -10 -17 -9 -21 3 -21 9 0 13 -6 10 -14 -3 -8 1 -27 9
-43 8 -15 18 -58 22 -95 5 -43 11 -65 18 -61 7 4 8 -14 4 -56 -4 -48 -2 -61 7
-58 10 4 10 -5 0 -49 -10 -46 -10 -57 2 -68 16 -17 19 -46 4 -46 -16 0 -12
-66 5 -80 10 -8 15 -31 15 -64 0 -33 3 -46 9 -37 6 8 10 -80 10 -222 l2 -237
-1081 0 -1080 0 -1 43 c0 23 0 77 1 120 l1 77 -80 0 -81 0 0 -80 0 -80 -79 0
-78 0 -6 -30 c-5 -24 -12 -30 -32 -30 -14 0 -25 5 -25 10 0 6 -4 10 -10 10 -6
0 -10 -27 -10 -60 l0 -60 -34 0 c-33 0 -35 2 -38 37 -5 55 -25 53 -30 -4 -3
-33 0 -51 9 -56 7 -4 13 -24 13 -43 0 -19 -4 -33 -9 -30 -5 3 -14 -1 -22 -10
-10 -13 -9 -16 9 -21 40 -10 26 -33 -21 -33 l-43 0 -1 49 c-1 40 4 54 23 72
13 12 20 27 17 32 -4 6 -6 31 -4 55 1 34 -1 42 -11 36 -8 -4 -7 0 3 12 10 12
14 33 12 56 -2 28 1 40 16 47 10 6 21 7 25 4 3 -3 6 3 6 15 0 12 -4 22 -10 22
-5 0 -10 9 -10 21 0 11 -4 28 -9 37 -12 22 -21 193 -10 187 4 -3 11 11 14 32
8 49 12 72 19 103 6 21 5 22 -3 5 -5 -11 -10 -14 -10 -7 -1 7 5 21 12 32 10
17 9 22 -3 30 -10 6 -11 10 -2 10 6 0 12 7 12 15 0 8 9 15 21 15 18 0 20 5 17
43 -2 34 -7 42 -23 42 -16 0 -20 -6 -18 -30 l2 -30 -9 28 c-5 16 -5 41 1 60
12 41 11 56 -1 37 -5 -8 -10 -10 -10 -5 0 6 4 15 10 21 5 5 10 26 12 47 1 20
7 37 13 37 5 0 3 5 -5 10 -13 9 -13 10 0 11 10 0 9 3 -5 10 -15 7 -11 8 19 5
29 -4 45 0 64 14 13 11 31 20 38 20 7 0 16 5 20 12 5 8 2 9 -10 5 -10 -4 -15
-3 -11 3 3 6 13 10 21 10 8 0 12 5 9 10 -3 6 -1 10 4 10 6 0 11 9 11 21 0 11
4 18 9 15 5 -3 12 5 15 19 4 16 11 22 21 19 14 -6 20 10 16 44 -1 7 5 15 13
18 9 3 13 10 10 15 -2 5 0 18 7 30 6 12 7 19 1 15 -6 -4 -8 2 -5 14 3 11 10
20 15 20 6 0 8 11 6 25 -3 13 -2 22 3 19 4 -2 5 12 2 32 -5 29 -2 40 13 51 16
12 17 15 4 23 -13 8 -12 10 3 10 11 0 15 5 11 11 -4 8 7 10 39 8 40 -4 44 -2
36 14 -7 12 -6 17 5 17 8 0 16 8 18 17 5 29 -4 93 -12 88 -5 -3 -7 12 -4 32 3
29 2 33 -5 18 -8 -17 -10 -15 -11 15 -1 29 -3 32 -10 15 -6 -14 -9 -16 -10 -5
-4 25 1 55 10 64 5 5 6 15 3 24 -4 10 -2 13 5 8 11 -6 17 12 13 37 -1 4 6 10
14 13 9 4 15 19 16 38 0 27 2 28 10 11 8 -17 8 -16 3 5 -3 14 -8 39 -11 55 -2
17 -7 37 -10 45 -3 8 -5 23 -4 34 2 12 -1 16 -10 11 -7 -5 -10 -4 -6 2 8 13
-12 85 -21 79 -4 -2 -15 9 -24 25 l-17 29 27 -6 c15 -4 37 -10 48 -15 12 -4
31 -5 43 -2 20 5 20 6 4 19 -12 9 -14 13 -5 14 7 0 10 5 7 10 -4 6 -10 8 -14
5 -12 -7 -82 51 -73 59 4 4 3 6 -3 5 -17 -5 -56 12 -50 22 4 5 -1 9 -9 9 -8 0
-20 10 -27 23 -6 12 -35 45 -65 72 -29 28 -55 57 -56 65 -2 8 -13 23 -25 33
-26 21 -29 38 -11 67 10 16 10 25 -4 47 -9 16 -23 28 -30 28 -7 0 -25 13 -41
30 -31 32 -31 28 -4 154 16 73 8 116 -30 157 -13 14 -23 34 -23 45 0 11 -4 17
-10 14 -6 -4 -10 7 -10 27 0 23 -3 29 -9 19 -11 -18 -23 33 -16 69 3 15 -3 41
-14 60 -18 34 -18 35 4 77 14 26 25 70 30 115 4 40 13 111 21 157 8 46 14 103
14 127 0 68 -47 240 -76 274 -7 8 -15 27 -19 42 -4 14 -22 40 -41 57 -19 18
-34 36 -34 43 0 15 -167 176 -201 193 -15 8 -30 24 -34 34 -6 19 -54 66 -89
86 -10 6 -18 19 -19 30 -3 33 -35 63 -63 57 -13 -2 -24 -8 -24 -12 0 -18 31
-80 40 -80 13 0 32 -38 21 -44 -14 -9 -102 64 -117 98 -8 17 -24 46 -35 63
-20 31 -19 53 2 53 6 0 31 -5 57 -12z m-2228 -148 c-8 -5 -26 -9 -40 -9 -23 1
-23 2 5 9 43 11 52 11 35 0z m-106 -92 c-10 -12 -31 -33 -47 -47 -15 -15 -43
-43 -64 -63 -20 -21 -41 -38 -47 -38 -6 0 -23 -6 -37 -14 -24 -12 -25 -12 -21
9 4 24 87 115 129 142 20 13 66 28 97 32 5 1 1 -9 -10 -21z m1361 -641 c20 3
47 -4 80 -21 28 -14 61 -26 75 -26 14 0 36 -7 48 -16 22 -15 25 -15 44 2 19
18 20 18 43 -8 l24 -28 42 40 c41 38 66 48 39 15 -7 -8 -9 -15 -4 -15 4 0 3
-5 -4 -12 -21 -21 -14 -25 45 -33 34 -4 62 -13 69 -23 10 -14 14 -13 40 5 39
27 70 36 90 25 14 -8 13 -11 -9 -28 l-24 -20 64 4 c71 5 183 -16 183 -34 0 -6
17 -14 38 -16 35 -5 88 -26 122 -47 8 -5 45 -24 83 -41 37 -18 65 -35 62 -40
-3 -4 17 -34 43 -67 67 -81 99 -136 132 -223 7 -19 32 -88 57 -153 24 -65 48
-149 53 -185 4 -37 22 -123 38 -192 16 -69 33 -159 37 -200 3 -41 13 -108 22
-148 8 -39 13 -78 11 -86 -2 -9 -36 15 -93 66 -118 106 -166 128 -265 122 -46
-3 -67 -1 -55 4 30 13 -178 60 -302 68 -93 6 -104 5 -137 -15 -44 -27 -150
-130 -143 -138 11 -10 -22 -33 -38 -27 -11 5 -13 9 -5 14 7 4 13 56 17 136 6
116 5 128 -9 116 -9 -7 -30 -56 -48 -109 l-31 -96 28 -23 28 -23 -57 19 c-74
26 -205 27 -294 3 l-65 -17 -34 36 c-19 20 -31 38 -27 40 11 4 76 187 69 194
-3 3 -21 -20 -39 -52 l-33 -59 -3 63 c-2 51 -6 63 -17 58 -10 -3 -15 1 -15 13
0 10 -6 24 -14 30 -16 14 -58 9 -64 -7 -2 -8 -17 -5 -44 9 -22 11 -49 18 -60
16 -11 -3 -60 8 -110 24 -81 26 -106 29 -217 29 -92 0 -122 3 -111 11 11 8 6
9 -20 5 -19 -4 -67 -9 -107 -13 -70 -6 -72 -5 -66 16 3 11 10 21 15 21 5 0 6
5 3 10 -3 6 -3 15 1 22 4 7 9 28 11 48 2 19 9 58 17 85 8 28 17 104 20 170 8
190 55 394 56 245 0 -78 24 -230 41 -262 13 -26 69 -92 69 -82 0 3 -8 18 -18
32 -24 36 -59 161 -68 243 -12 118 19 242 82 326 13 17 24 36 24 40 0 29 134
120 213 145 47 15 202 24 277 17 36 -4 78 -5 95 -2z m-832 -924 c2 -82 -5 -94
-71 -123 l-41 -19 10 27 c6 14 15 32 21 39 6 7 8 13 5 13 -3 0 3 21 14 46 12
25 23 80 27 122 l6 77 14 -55 c7 -30 14 -88 15 -127z m-1756 -390 c-2 -16 -4
-5 -4 22 0 28 2 40 4 28 2 -13 2 -35 0 -50z m1218 -73 c3 -5 1 -10 -4 -10 -6
0 -11 5 -11 10 0 6 2 10 4 10 3 0 8 -4 11 -10z m780 -16 c22 -7 50 -14 62 -14
32 0 168 -69 182 -93 12 -18 11 -19 -11 -13 -136 39 -146 40 -328 40 -127 1
-194 -3 -214 -12 -16 -7 -31 -11 -33 -9 -6 6 55 63 80 74 44 21 92 41 112 46
28 7 102 -2 150 -19z m-978 -66 c-2 -13 -4 -5 -4 17 -1 22 1 32 4 23 2 -10 2
-28 0 -40z m1036 -47 c106 -16 121 -21 146 -47 16 -16 31 -41 35 -56 5 -24 4
-26 -11 -20 -57 25 -93 47 -93 59 0 8 -4 12 -9 9 -5 -4 -11 -2 -13 4 -6 19
-122 32 -228 27 -136 -8 -180 -12 -207 -21 -17 -5 -21 -3 -19 11 3 20 0 19
101 37 106 19 157 18 298 -3z m1056 -22 c-16 -10 -79 12 -79 27 0 10 10 9 45
-4 24 -9 40 -19 34 -23z m88 -16 c-4 -3 -1 -13 6 -21 8 -11 8 -14 0 -9 -7 4
-14 0 -16 -10 -3 -10 -4 -4 -2 12 4 37 4 35 12 35 3 0 3 -3 0 -7z m1292 -75
c22 -47 45 -131 40 -146 -9 -23 -48 8 -58 45 -13 50 -20 143 -10 143 4 0 16
-19 28 -42z m-354 12 c2 -4 -7 -5 -20 -2 -14 2 -27 8 -30 12 -2 4 7 5 20 2 14
-2 27 -8 30 -12z m-190 -6 c44 -8 101 -19 127 -24 46 -9 131 -47 212 -93 47
-27 104 -120 119 -192 6 -26 5 -27 -4 -9 -6 12 -23 27 -37 33 -30 14 -155 41
-161 35 -2 -2 -12 -57 -23 -121 -12 -81 -20 -201 -24 -383 -4 -146 -9 -267
-11 -270 -3 -3 -89 -5 -191 -4 -233 0 -343 22 -525 104 -84 37 -180 196 -197
325 -9 69 -11 182 -3 138 4 -19 11 -23 38 -23 19 0 37 5 40 10 8 13 106 13
138 1 14 -6 54 -13 89 -16 78 -7 95 4 130 87 l24 57 30 -18 c35 -21 74 -67 74
-87 0 -7 8 -17 17 -23 30 -16 5 -26 -80 -30 l-81 -3 40 -15 c25 -9 58 -12 95
-8 51 5 57 4 75 -20 24 -32 79 -36 71 -5 -3 12 2 27 11 36 14 15 14 17 -1 26
-9 5 -21 18 -27 28 -10 18 -9 19 15 8 14 -6 28 -8 32 -5 5 6 -32 94 -72 167
-7 14 -28 35 -46 47 -19 13 -40 27 -47 33 -16 14 -141 70 -155 70 -7 0 -29 5
-50 11 -31 8 -35 12 -24 24 14 14 124 59 168 69 71 16 212 -65 260 -148 25
-44 29 -61 29 -131 l1 -80 15 35 c19 43 26 108 13 116 -5 3 -7 15 -3 26 3 12
2 18 -3 15 -5 -3 -15 14 -21 39 -9 34 -17 44 -32 44 -11 0 -25 10 -31 23 -6
12 -37 40 -70 61 -33 21 -62 43 -65 47 -8 13 31 11 121 -7z m220 -4 c3 -5 1
-10 -4 -10 -6 0 -11 5 -11 10 0 6 2 10 4 10 3 0 8 -4 11 -10z m-1122 -23 c-4
-6 0 -8 9 -5 8 4 23 -3 32 -14 16 -18 17 -25 5 -67 l-13 -46 -12 52 c-8 35
-21 60 -40 77 l-29 24 27 -5 c16 -3 25 -10 21 -16z m-1059 7 c25 -10 19 -34
-9 -34 -24 0 -34 18 -18 33 8 8 8 8 27 1z m123 -48 c32 -29 76 -70 98 -90 l40
-35 -50 -2 c-27 -1 -63 -5 -80 -8 -29 -7 -29 -8 15 -15 25 -4 75 -12 113 -18
37 -6 70 -8 74 -5 7 8 -65 117 -77 117 -4 0 -12 12 -19 27 l-12 27 27 -27 c26
-26 40 -31 76 -28 12 2 21 -13 32 -53 9 -30 16 -58 16 -63 0 -4 -22 -32 -49
-61 -27 -30 -57 -69 -66 -88 -20 -43 -17 -80 8 -76 28 5 30 -23 4 -80 -14 -29
-30 -75 -37 -103 -6 -27 -17 -53 -23 -57 -35 -22 -336 -4 -572 33 -146 24
-267 85 -292 149 -7 19 -20 46 -27 60 -16 29 -42 127 -50 183 l-5 37 39 0 c36
0 138 -33 150 -48 9 -12 89 -62 100 -62 5 0 10 -4 10 -10 0 -12 439 -12 485 0
19 5 -14 8 -91 9 -133 1 -179 12 -187 43 -10 35 9 68 40 69 27 1 28 1 4 8 -14
4 -26 12 -29 19 -3 9 25 12 110 12 l113 0 24 59 c15 38 22 73 19 95 -2 20 -1
36 3 36 4 0 33 -24 66 -54z m903 18 c23 -14 28 -25 33 -72 3 -30 2 -63 -3 -72
-6 -12 0 -35 20 -79 17 -35 30 -70 30 -80 0 -17 52 -187 69 -226 5 -11 23 -63
41 -115 37 -112 50 -140 70 -158 10 -9 11 -11 1 -6 -9 4 -12 2 -9 -7 3 -8 10
-13 16 -12 5 1 18 -7 27 -17 10 -11 24 -20 32 -20 7 0 13 -4 13 -9 0 -20 143
-82 232 -102 196 -43 266 -52 410 -53 l147 -1 -6 -85 c-6 -108 -46 -358 -83
-520 -15 -69 -36 -172 -45 -230 -10 -58 -23 -129 -31 -159 -7 -29 -11 -58 -8
-62 3 -5 0 -9 -5 -9 -6 0 -11 -11 -11 -24 0 -13 -7 -46 -15 -72 -8 -27 -23
-78 -34 -114 -10 -36 -24 -78 -30 -95 -6 -16 -13 -43 -16 -58 -4 -19 -10 -27
-20 -23 -12 4 -28 -20 -30 -47 0 -4 -5 -11 -11 -15 -7 -4 -13 -16 -15 -27 -2
-11 -14 -24 -26 -30 -22 -9 -39 -45 -22 -45 12 0 11 -47 -1 -55 -6 -4 -10 5
-10 19 0 16 -6 26 -14 26 -17 0 -26 -22 -26 -65 0 -19 -4 -37 -10 -40 -5 -3
-10 -1 -10 4 0 19 -28 12 -35 -9 -3 -11 -14 -27 -23 -37 -9 -9 -18 -19 -18
-22 -7 -31 -18 -51 -30 -55 -12 -5 -71 -117 -86 -166 -3 -8 -9 20 -13 62 -8
80 -1 148 15 148 5 0 8 36 6 79 -3 60 0 78 9 75 14 -6 14 53 1 94 -6 17 -4 22
9 22 12 0 16 6 12 20 -3 11 -2 20 3 20 4 0 8 6 7 13 -2 49 4 97 12 93 9 -6 21
26 21 57 0 35 30 124 49 144 10 10 27 52 37 91 18 70 18 74 0 144 -28 107 -69
186 -132 251 -31 32 -59 55 -62 53 -3 -3 -35 23 -71 58 -36 36 -78 74 -92 85
-15 11 -34 36 -43 55 -9 20 -38 50 -64 68 -26 18 -56 40 -66 50 -11 10 -23 18
-28 18 -24 0 -2 18 41 34 28 10 57 28 66 43 l17 25 -29 -21 c-42 -30 -128 -55
-149 -43 -22 12 -56 1 -100 -33 -17 -13 -34 -21 -38 -18 -10 11 -35 -18 -41
-49 l-7 -30 -25 37 -25 37 28 29 c15 16 32 29 37 29 18 0 157 145 157 164 0
20 -27 56 -42 56 -12 0 -68 55 -68 68 0 6 -13 21 -30 33 -16 13 -42 41 -57 63
-25 37 -28 48 -26 121 1 44 9 125 17 180 12 86 12 118 -1 235 -7 74 -19 159
-25 189 l-12 54 38 34 c37 34 40 35 106 31 47 -2 66 0 60 7 -7 9 -14 56 -11
78 2 12 21 8 51 -9z m1314 -10 c9 -8 16 -12 16 -8 0 4 11 -5 25 -20 30 -33 32
-40 5 -26 -11 6 -20 15 -20 20 0 6 -7 10 -15 10 -8 0 -15 5 -15 11 0 5 -5 7
-12 3 -7 -5 -8 -3 -3 6 6 10 4 12 -8 7 -10 -3 -17 -2 -17 3 0 15 27 12 44 -6z
m-3067 -116 c-2 -18 -4 -6 -4 27 0 33 2 48 4 33 2 -15 2 -42 0 -60z m464 39
c-1 -12 -15 -9 -19 4 -3 6 1 10 8 8 6 -3 11 -8 11 -12z m2019 -74 c100 -47
143 -89 165 -161 6 -20 -2 -17 -54 23 -34 26 -61 50 -61 53 0 17 -178 92 -218
92 -9 0 -24 5 -32 10 -13 9 -13 11 0 20 26 18 121 0 200 -37z m-2544 -60 c3
-16 10 -44 15 -63 5 -19 9 -46 9 -59 0 -32 62 -161 89 -185 11 -11 21 -24 21
-31 0 -18 99 -68 150 -76 25 -3 108 -18 185 -32 159 -29 426 -52 491 -43 24 3
46 1 49 -4 7 -11 -48 -27 -138 -40 -38 -6 -101 -17 -140 -25 -40 -8 -133 -24
-207 -34 -75 -11 -165 -27 -200 -35 -112 -27 -110 -27 -182 75 -34 50 -71 100
-82 112 -10 12 -29 38 -41 58 -13 19 -41 54 -64 78 -22 23 -41 46 -41 50 0 13
-138 148 -170 167 -32 19 -39 34 -16 34 8 0 58 18 113 40 120 49 150 51 159
13z m2035 -75 c-1 -45 1 -48 19 -38 26 14 40 13 40 -5 0 -8 -6 -15 -14 -15 -8
0 -21 -2 -29 -6 -19 -7 -35 37 -36 101 -1 41 1 47 10 31 6 -10 11 -41 10 -68z
m402 27 c1 -5 -13 -11 -30 -13 -31 -3 -42 6 -26 22 10 10 53 3 56 -9z m-261
-17 c-7 -7 -12 -36 -12 -65 0 -29 -4 -53 -8 -53 -15 0 -32 24 -32 46 0 21 44
84 58 84 3 0 1 -5 -6 -12z m1045 -40 c-3 -8 -6 -5 -6 6 -1 11 2 17 5 13 3 -3
4 -12 1 -19z m7 -177 c-4 -9 -9 -36 -11 -60 -3 -39 -51 -162 -52 -135 -1 7 11
54 25 105 15 52 29 126 33 164 l6 70 3 -64 c2 -35 0 -71 -4 -80z m-1149 109
c3 -5 1 -10 -4 -10 -6 0 -11 5 -11 10 0 6 2 10 4 10 3 0 8 -4 11 -10z m1101
-162 c-14 -78 -38 -143 -87 -245 -30 -59 -52 -114 -50 -122 1 -9 -3 -12 -14
-7 -9 3 -14 2 -11 -3 9 -13 -19 -21 -35 -9 -11 8 -9 8 6 4 18 -6 19 -5 3 7
-15 12 -17 35 -17 184 0 123 3 174 12 181 20 17 110 41 156 41 l44 1 -7 -32z
m-19 -180 c-3 -8 -6 -5 -6 6 -1 11 2 17 5 13 3 -3 4 -12 1 -19z m-2111 -45
c-3 -10 -10 -36 -15 -59 -6 -22 -29 -66 -51 -97 -22 -32 -53 -83 -68 -115 -16
-31 -41 -77 -56 -102 -26 -45 -39 -70 -70 -142 l-16 -38 59 0 c40 0 62 -5 71
-15 15 -18 3 -30 -60 -62 -19 -10 -42 -23 -50 -29 -8 -7 -42 -19 -75 -29 -101
-29 -177 -70 -228 -124 -27 -28 -53 -51 -57 -51 -10 0 -72 125 -81 165 -8 33
-65 189 -80 218 -5 9 -16 47 -25 84 -8 36 -22 79 -30 94 -8 15 -14 43 -14 62
0 28 7 39 38 60 39 28 238 97 275 97 24 0 237 39 407 75 134 29 132 29 126 8z
m2075 -37 c-7 -8 -9 -21 -5 -28 5 -10 4 -10 -5 -2 -10 9 -10 16 0 32 7 12 15
19 18 17 2 -3 -2 -11 -8 -19z m-144 -298 c-3 -8 -6 -5 -6 6 -1 11 2 17 5 13 3
-3 4 -12 1 -19z m-1385 -538 c34 -28 62 -32 110 -15 63 22 73 19 124 -30 25
-25 57 -53 70 -62 13 -8 24 -20 24 -27 0 -6 20 -29 44 -51 41 -37 68 -85 49
-85 -5 0 -18 9 -30 19 -11 11 -51 40 -89 66 -38 26 -76 53 -84 60 -28 23 -111
44 -137 34 -45 -17 -83 -10 -141 27 -31 20 -69 38 -84 39 -40 3 -42 9 -10 26
15 8 29 16 32 19 3 3 21 18 40 32 l34 27 13 -30 c7 -17 23 -39 35 -49z m-2737
-10 c-4 -12 -9 -19 -12 -17 -3 3 -2 15 2 27 4 12 9 19 12 17 3 -3 2 -15 -2
-27z m5 -70 c-6 -37 -8 -40 -9 -13 -1 29 8 68 14 61 1 -2 -1 -23 -5 -48z
m4040 -80 c0 -5 -5 -10 -11 -10 -5 0 -7 5 -4 10 3 6 8 10 11 10 2 0 4 -4 4
-10z m0 -55 c-7 -9 -15 -13 -17 -11 -6 6 20 36 26 30 2 -2 -2 -10 -9 -19z
m490 -32 l0 -43 -45 0 c-44 0 -45 1 -45 33 0 42 11 53 55 53 35 0 35 -1 35
-43z m-1910 12 c74 -18 67 -18 139 -9 94 12 212 -19 310 -81 70 -45 99 -66
120 -89 14 -14 32 -26 42 -26 10 0 37 -24 61 -54 24 -30 49 -55 56 -55 6 -1
12 -7 12 -13 0 -7 6 -24 13 -38 34 -65 38 -92 21 -144 -9 -28 -21 -54 -27 -57
-5 -4 -8 -21 -5 -38 2 -17 1 -31 -4 -31 -4 0 -8 4 -8 9 0 5 -7 12 -16 15 -14
5 -16 1 -11 -24 4 -16 2 -30 -3 -30 -5 0 -7 -7 -4 -15 5 -11 2 -13 -11 -8 -16
6 -17 2 -12 -37 4 -31 2 -39 -6 -31 -6 6 -18 11 -27 10 -10 0 -11 -2 -2 -6 13
-5 17 -33 4 -33 -4 0 -9 -11 -10 -25 -1 -14 2 -25 7 -25 5 0 11 -7 15 -15 8
-21 1 -19 -30 10 -31 29 -41 27 -24 -5 7 -13 8 -26 2 -33 -5 -7 -7 -25 -5 -41
4 -26 2 -28 -11 -16 -14 11 -16 9 -16 -17 0 -16 6 -35 13 -42 10 -11 9 -13 -3
-9 -8 3 -24 21 -34 41 -11 20 -21 35 -24 33 -2 -2 1 -13 7 -24 6 -11 8 -27 5
-35 -3 -8 -1 -18 5 -22 14 -8 14 -45 1 -45 -6 0 -19 13 -28 30 -9 16 -21 30
-25 30 -4 0 -19 11 -33 25 l-24 24 6 -27 c3 -15 10 -39 14 -54 6 -17 5 -28 -1
-28 -5 0 -9 7 -9 16 0 30 -98 153 -132 166 -13 5 -16 2 -12 -16 2 -15 -1 -23
-11 -23 -8 0 -13 2 -10 5 2 3 -7 18 -20 34 -14 16 -28 41 -31 55 -4 14 -31 61
-60 105 -57 84 -69 116 -31 80 13 -12 28 -22 34 -22 7 0 24 -15 40 -34 27 -32
73 -64 73 -50 0 4 -13 31 -29 59 -55 98 -50 170 18 247 38 43 38 52 5 91 -15
18 -23 38 -21 49 3 11 -2 22 -14 29 -35 18 -220 50 -354 60 -71 6 -144 12
-162 14 -25 2 -34 -2 -38 -16 -4 -11 -11 -17 -16 -14 -5 4 -9 2 -9 -4 0 -5
-15 -36 -34 -68 -50 -85 -53 -111 -19 -166 35 -57 73 -81 113 -72 17 4 30 4
30 1 0 -12 -105 -121 -123 -128 -10 -4 -16 -12 -12 -17 5 -10 30 -5 50 9 6 4
31 10 57 12 l47 5 -26 -51 c-36 -73 -68 -103 -153 -143 -61 -30 -86 -36 -138
-36 -35 0 -67 4 -70 9 -4 5 -16 14 -27 20 -11 6 -25 22 -32 35 -7 13 -17 24
-22 24 -6 0 -16 6 -22 13 -7 6 -22 12 -34 12 -28 0 -49 15 -41 29 4 6 2 27 -4
46 -10 31 -15 35 -46 35 -21 0 -33 4 -29 10 3 6 1 10 -5 10 -6 0 -8 5 -5 11 4
6 -2 13 -13 16 -18 4 -19 8 -9 23 9 15 8 23 -6 38 -9 10 -17 26 -17 35 0 9 -4
17 -10 17 -5 0 -10 7 -10 15 0 8 -6 15 -12 15 -9 0 -8 4 2 10 13 9 8 14 -12
11 -4 0 -5 9 -3 21 3 12 -3 26 -12 33 -11 8 -13 14 -4 19 7 5 8 13 2 25 -5 9
-8 29 -7 44 3 29 51 97 67 97 6 0 24 13 39 29 37 36 155 114 206 136 21 9 79
20 129 26 49 5 122 16 160 24 88 18 302 12 395 -10z m1440 -26 c0 -5 -4 -9
-10 -9 -5 0 -10 7 -10 16 0 8 5 12 10 9 6 -3 10 -10 10 -16z m-4140 -134 c0
-8 -4 -15 -10 -15 -5 0 -10 7 -10 15 0 8 5 15 10 15 6 0 10 -7 10 -15z m140
-30 c11 -13 10 -14 -4 -9 -9 3 -16 10 -16 15 0 13 6 11 20 -6z m-140 -15 c0
-5 -4 -10 -10 -10 -5 0 -10 5 -10 10 0 6 5 10 10 10 6 0 10 -4 10 -10z m160
-20 c0 -5 -4 -10 -10 -10 -5 0 -10 5 -10 10 0 6 5 10 10 10 6 0 10 -4 10 -10z
m-2603 -102 c-3 -7 -5 -2 -5 12 0 14 2 19 5 13 2 -7 2 -19 0 -25z m6462 -21
c-13 -45 -26 -55 -44 -31 -8 10 -12 25 -10 32 3 8 0 10 -6 6 -7 -4 -10 -1 -7
7 3 8 15 13 27 12 11 -2 21 2 21 7 0 5 6 7 14 4 11 -4 12 -13 5 -37z m-3764
-17 c-3 -5 -12 -10 -18 -10 -7 0 -6 4 3 10 19 12 23 12 15 0z m3789 -8 c3 -5
-1 -9 -9 -9 -8 0 -12 4 -9 9 3 4 7 8 9 8 2 0 6 -4 9 -8z m3 -68 c2 -6 -3 -11
-10 -11 -8 0 -14 6 -14 14 0 15 19 12 24 -3z m-84 -40 c-3 -8 -15 -13 -27 -13
-18 1 -18 2 -3 6 11 3 16 11 13 18 -3 9 0 12 9 9 8 -3 11 -12 8 -20z m84 -26
c-3 -8 -6 -5 -6 6 -1 11 2 17 5 13 3 -3 4 -12 1 -19z m-547 -66 c0 -15 -2 -15
-10 -2 -13 20 -13 33 0 25 6 -3 10 -14 10 -23z m-1615 -112 c-3 -5 -12 -10
-18 -10 -7 0 -6 4 3 10 19 12 23 12 15 0z m4898 -3 c3 -8 1 -20 -4 -28 -6 -10
-9 -7 -9 14 0 29 5 35 13 14z m-2973 -33 c-12 -50 -33 -71 -25 -24 5 29 21 60
30 60 2 0 -1 -16 -5 -36z m2967 -56 c-3 -7 -5 -2 -5 12 0 14 2 19 5 13 2 -7 2
-19 0 -25z m-3681 -350 c6 -100 1 -168 -13 -154 -4 3 -8 48 -10 99 -2 70 -10
117 -33 187 -16 51 -30 98 -30 104 0 6 18 -20 39 -59 37 -65 40 -78 47 -177z
m511 117 c0 -8 -4 -12 -9 -9 -5 3 -6 10 -3 15 9 13 12 11 12 -6z m-7 -36 c0
-6 -4 -7 -10 -4 -5 3 -10 11 -10 16 0 6 5 7 10 4 6 -3 10 -11 10 -16z m-5878
-249 c2 -22 0 -40 -4 -40 -5 0 -8 18 -8 40 0 22 2 40 4 40 2 0 6 -18 8 -40z
m5297 -382 c-11 -40 -46 -149 -78 -243 -147 -429 -155 -451 -211 -585 -17 -41
-34 -90 -38 -109 -6 -28 -17 -40 -57 -63 -107 -60 -171 -78 -286 -78 -134 0
-429 57 -624 122 -49 16 -127 41 -172 56 -80 26 -83 28 -89 62 -4 19 -15 51
-25 70 -34 63 -89 190 -89 204 0 7 -16 57 -35 112 -51 145 -47 164 21 93 50
-52 107 -89 138 -89 16 0 38 -13 60 -36 18 -20 38 -40 42 -45 32 -32 145 -119
174 -134 19 -9 42 -23 50 -29 38 -30 235 -76 325 -76 29 0 74 -7 101 -15 64
-19 119 -19 149 1 21 14 24 21 19 54 -4 26 -1 49 12 75 18 38 18 38 -7 56 -50
39 -59 51 -108 143 -45 84 -62 167 -41 205 6 12 32 31 58 42 49 21 64 28 175
78 38 17 80 34 95 37 57 13 112 37 112 50 0 9 11 14 28 14 15 0 38 7 51 17 19
13 28 14 43 4 14 -9 23 -8 43 5 15 10 34 14 52 10 32 -7 79 12 108 44 10 11
19 20 21 20 1 0 -7 -33 -17 -72z m-1705 -264 c4 -10 1 -14 -6 -12 -15 5 -23
28 -10 28 5 0 13 -7 16 -16z m1982 -1264 l34 0 0 -70 0 -70 -32 0 c-60 0 -78
10 -78 40 0 15 7 33 15 40 8 7 15 17 15 22 0 6 -7 8 -15 4 -16 -6 -19 3 -9 29
4 9 13 14 21 11 8 -3 30 -6 49 -6z"/>
<path d="M6850 7125 c7 -8 17 -12 22 -9 6 4 5 10 -3 15 -22 14 -33 10 -19 -6z"/>
<path d="M7068 6083 c7 -3 16 -2 19 1 4 3 -2 6 -13 5 -11 0 -14 -3 -6 -6z"/>
<path d="M7012 6020 c0 -14 2 -19 5 -12 2 6 2 18 0 25 -3 6 -5 1 -5 -13z"/>
<path d="M7021 5983 c0 -6 -4 -20 -7 -30 -5 -14 -4 -15 5 -7 7 7 11 20 8 30
-3 11 -5 14 -6 7z"/>
<path d="M6758 5563 c7 -3 16 -2 19 1 4 3 -2 6 -13 5 -11 0 -14 -3 -6 -6z"/>
<path d="M6705 5097 c-12 -26 -8 -97 6 -97 5 0 9 27 9 60 0 33 -1 60 -2 60 -2
0 -7 -10 -13 -23z"/>
<path d="M7040 5038 l0 -38 81 0 80 0 -3 37 -3 38 -77 0 -78 1 0 -38z"/>
<path d="M7280 5038 c0 -38 0 -38 41 -38 l40 0 -3 37 c-3 36 -5 37 -40 38 -37
1 -38 1 -38 -37z"/>
<path d="M7520 5038 l0 -38 120 0 120 0 0 -40 0 -40 40 0 41 0 -3 77 -3 78
-157 0 -158 0 0 -37z"/>
<path d="M8160 4998 l0 -78 40 0 40 0 0 40 0 40 40 0 40 0 0 -40 0 -40 40 0
40 0 0 40 0 40 41 0 40 0 -3 37 -3 38 -157 0 -158 0 0 -77z"/>
<path d="M8800 5038 c0 -38 0 -38 40 -38 l40 0 0 -40 0 -40 40 0 40 0 0 40 0
40 81 0 80 0 -3 37 -3 38 -157 0 -158 0 0 -37z"/>
<path d="M7360 4860 c0 -17 7 -20 40 -20 33 0 40 3 40 20 0 17 -7 20 -40 20
-33 0 -40 -3 -40 -20z"/>
<path d="M6840 4800 c0 -33 3 -40 20 -40 17 0 20 7 20 40 0 33 -3 40 -20 40
-17 0 -20 -7 -20 -40z"/>
<path d="M4968 7673 c6 -2 18 -2 25 0 6 3 1 5 -13 5 -14 0 -19 -2 -12 -5z"/>
<path d="M5143 7673 c9 -2 25 -2 35 0 9 3 1 5 -18 5 -19 0 -27 -2 -17 -5z"/>
<path d="M5456 7175 c-3 -8 -1 -15 4 -15 6 0 10 7 10 15 0 8 -2 15 -4 15 -2 0
-6 -7 -10 -15z"/>
<path d="M6008 6128 c5 -5 27 -11 48 -13 22 -1 30 0 19 2 -20 5 -20 6 0 13 12
4 2 7 -28 7 -29 0 -44 -4 -39 -9z"/>
<path d="M6075 6039 c44 -23 122 -49 145 -49 8 1 -7 10 -35 21 -27 12 -65 27
-83 35 -51 22 -71 17 -27 -7z"/>
<path d="M5826 5758 c18 -30 29 -35 40 -16 4 7 3 8 -5 4 -7 -4 -20 2 -32 16
l-20 23 17 -27z"/>
<path d="M5865 5691 c13 -26 35 -50 35 -38 0 13 -33 67 -41 67 -5 0 -3 -13 6
-29z"/>
<path d="M5914 5637 c3 -10 6 -21 6 -23 0 -2 6 -4 14 -4 19 0 28 27 10 34 -8
3 -14 0 -14 -7 0 -8 -4 -7 -11 3 -9 12 -10 12 -5 -3z"/>
<path d="M5787 5565 c3 -33 7 -62 9 -64 7 -8 2 74 -6 99 -5 16 -6 2 -3 -35z"/>
<path d="M5960 5610 c0 -5 4 -10 9 -10 6 0 13 5 16 10 3 6 -1 10 -9 10 -9 0
-16 -4 -16 -10z"/>
<path d="M5996 5591 c-4 -5 3 -7 14 -4 23 6 26 13 6 13 -8 0 -17 -4 -20 -9z"/>
<path d="M5610 5477 c-14 -6 -27 -14 -30 -17 -3 -3 -24 -18 -48 -34 -50 -34
-44 -47 20 -52 62 -4 117 11 147 40 l25 25 -24 26 c-25 27 -50 30 -90 12z"/>
<path d="M5772 5465 c-17 -37 -14 -45 4 -12 9 16 14 31 11 33 -2 2 -9 -7 -15
-21z"/>
<path d="M2408 6330 c-7 -42 -6 -44 8 -22 6 9 8 26 4 37 -6 16 -8 13 -12 -15z"/>
<path d="M2281 5574 c0 -11 3 -14 6 -6 3 7 2 16 -1 19 -3 4 -6 -2 -5 -13z"/>
<path d="M2400 5335 c0 -8 4 -15 10 -15 5 0 7 7 4 15 -4 8 -8 15 -10 15 -2 0
-4 -7 -4 -15z"/>
<path d="M640 5038 l0 -38 561 0 560 0 -3 38 -3 37 -557 0 -558 0 0 -37z"/>
<path d="M320 4960 c0 -33 3 -40 20 -40 17 0 20 7 20 40 0 33 -3 40 -20 40
-17 0 -20 -7 -20 -40z"/>
<path d="M2400 4880 c0 -33 3 -40 19 -40 16 0 19 7 18 40 -2 31 -6 40 -19 40
-14 0 -18 -9 -18 -40z"/>
<path d="M400 4860 c0 -17 7 -20 40 -20 33 0 40 3 40 20 0 17 -7 20 -40 20
-33 0 -40 -3 -40 -20z"/>
<path d="M2400 4795 c0 -24 5 -35 15 -35 10 0 15 11 15 35 0 24 -5 35 -15 35
-10 0 -15 -11 -15 -35z"/>
</g>
</svg>
